<mxfile host="Electron" agent="Mozilla/5.0 (Windows NT 10.0; Win64; x64) AppleWebKit/537.36 (KHTML, like Gecko) draw.io/25.0.2 Chrome/128.0.6613.186 Electron/32.2.5 Safari/537.36" version="25.0.2">
  <diagram name="Page-1" id="d7t0EijorHq8jaIxipue">
    <mxGraphModel dx="3233" dy="1976" grid="1" gridSize="10" guides="1" tooltips="1" connect="1" arrows="1" fold="1" page="1" pageScale="1" pageWidth="1920" pageHeight="1200" background="#09033a" math="0" shadow="0">
      <root>
        <mxCell id="0" />
        <mxCell id="1" parent="0" />
        <mxCell id="PUZ8tLJXQuR5AAKcZnAG-1" value="USER (din fw)" style="swimlane;fontStyle=2;align=center;verticalAlign=top;childLayout=stackLayout;horizontal=1;startSize=26;horizontalStack=0;resizeParent=1;resizeLast=0;collapsible=1;marginBottom=0;rounded=0;shadow=0;strokeWidth=1;" parent="1" vertex="1">
          <mxGeometry x="-1170" y="35" width="170" height="312" as="geometry">
            <mxRectangle x="230" y="140" width="160" height="26" as="alternateBounds" />
          </mxGeometry>
        </mxCell>
        <mxCell id="PUZ8tLJXQuR5AAKcZnAG-2" value="IdUser [PK] (int)" style="text;align=left;verticalAlign=top;spacingLeft=4;spacingRight=4;overflow=hidden;rotatable=0;points=[[0,0.5],[1,0.5]];portConstraint=eastwest;" parent="PUZ8tLJXQuR5AAKcZnAG-1" vertex="1">
          <mxGeometry y="26" width="170" height="26" as="geometry" />
        </mxCell>
        <mxCell id="PUZ8tLJXQuR5AAKcZnAG-3" value="Name (str)" style="text;align=left;verticalAlign=top;spacingLeft=4;spacingRight=4;overflow=hidden;rotatable=0;points=[[0,0.5],[1,0.5]];portConstraint=eastwest;" parent="PUZ8tLJXQuR5AAKcZnAG-1" vertex="1">
          <mxGeometry y="52" width="170" height="26" as="geometry" />
        </mxCell>
        <mxCell id="PUZ8tLJXQuR5AAKcZnAG-4" value="UserName (str cu regex)" style="text;align=left;verticalAlign=top;spacingLeft=4;spacingRight=4;overflow=hidden;rotatable=0;points=[[0,0.5],[1,0.5]];portConstraint=eastwest;" parent="PUZ8tLJXQuR5AAKcZnAG-1" vertex="1">
          <mxGeometry y="78" width="170" height="26" as="geometry" />
        </mxCell>
        <mxCell id="PUZ8tLJXQuR5AAKcZnAG-5" value="Email (str cu regex)" style="text;align=left;verticalAlign=top;spacingLeft=4;spacingRight=4;overflow=hidden;rotatable=0;points=[[0,0.5],[1,0.5]];portConstraint=eastwest;rounded=0;shadow=0;html=0;" parent="PUZ8tLJXQuR5AAKcZnAG-1" vertex="1">
          <mxGeometry y="104" width="170" height="26" as="geometry" />
        </mxCell>
        <mxCell id="PUZ8tLJXQuR5AAKcZnAG-7" value="Password (str cu regex)" style="text;align=left;verticalAlign=top;spacingLeft=4;spacingRight=4;overflow=hidden;rotatable=0;points=[[0,0.5],[1,0.5]];portConstraint=eastwest;" parent="PUZ8tLJXQuR5AAKcZnAG-1" vertex="1">
          <mxGeometry y="130" width="170" height="26" as="geometry" />
        </mxCell>
        <mxCell id="PUZ8tLJXQuR5AAKcZnAG-8" value="Description (str)" style="text;align=left;verticalAlign=top;spacingLeft=4;spacingRight=4;overflow=hidden;rotatable=0;points=[[0,0.5],[1,0.5]];portConstraint=eastwest;" parent="PUZ8tLJXQuR5AAKcZnAG-1" vertex="1">
          <mxGeometry y="156" width="170" height="26" as="geometry" />
        </mxCell>
        <mxCell id="PUZ8tLJXQuR5AAKcZnAG-9" value="ProfilePic (pt img)" style="text;align=left;verticalAlign=top;spacingLeft=4;spacingRight=4;overflow=hidden;rotatable=0;points=[[0,0.5],[1,0.5]];portConstraint=eastwest;" parent="PUZ8tLJXQuR5AAKcZnAG-1" vertex="1">
          <mxGeometry y="182" width="170" height="26" as="geometry" />
        </mxCell>
        <mxCell id="PUZ8tLJXQuR5AAKcZnAG-12" value="POST" style="swimlane;fontStyle=0;align=center;verticalAlign=top;childLayout=stackLayout;horizontal=1;startSize=26;horizontalStack=0;resizeParent=1;resizeLast=0;collapsible=1;marginBottom=0;rounded=0;shadow=0;strokeWidth=1;" parent="1" vertex="1">
          <mxGeometry x="-1020" y="644" width="160" height="182" as="geometry">
            <mxRectangle x="130" y="380" width="160" height="26" as="alternateBounds" />
          </mxGeometry>
        </mxCell>
        <mxCell id="PUZ8tLJXQuR5AAKcZnAG-13" value="IdPost [PK] (int)" style="text;align=left;verticalAlign=top;spacingLeft=4;spacingRight=4;overflow=hidden;rotatable=0;points=[[0,0.5],[1,0.5]];portConstraint=eastwest;" parent="PUZ8tLJXQuR5AAKcZnAG-12" vertex="1">
          <mxGeometry y="26" width="160" height="26" as="geometry" />
        </mxCell>
        <mxCell id="PUZ8tLJXQuR5AAKcZnAG-14" value="Description * (opt, str)" style="text;align=left;verticalAlign=top;spacingLeft=4;spacingRight=4;overflow=hidden;rotatable=0;points=[[0,0.5],[1,0.5]];portConstraint=eastwest;" parent="PUZ8tLJXQuR5AAKcZnAG-12" vertex="1">
          <mxGeometry y="52" width="160" height="26" as="geometry" />
        </mxCell>
        <mxCell id="PUZ8tLJXQuR5AAKcZnAG-15" value="Date (date)" style="text;align=left;verticalAlign=top;spacingLeft=4;spacingRight=4;overflow=hidden;rotatable=0;points=[[0,0.5],[1,0.5]];portConstraint=eastwest;rounded=0;shadow=0;html=0;" parent="PUZ8tLJXQuR5AAKcZnAG-12" vertex="1">
          <mxGeometry y="78" width="160" height="26" as="geometry" />
        </mxCell>
        <mxCell id="PUZ8tLJXQuR5AAKcZnAG-17" value="IdUser [FK] (int)" style="text;align=left;verticalAlign=top;spacingLeft=4;spacingRight=4;overflow=hidden;rotatable=0;points=[[0,0.5],[1,0.5]];portConstraint=eastwest;fontStyle=0" parent="PUZ8tLJXQuR5AAKcZnAG-12" vertex="1">
          <mxGeometry y="104" width="160" height="26" as="geometry" />
        </mxCell>
        <mxCell id="PUZ8tLJXQuR5AAKcZnAG-19" value="COMMENT" style="swimlane;fontStyle=0;align=center;verticalAlign=top;childLayout=stackLayout;horizontal=1;startSize=26;horizontalStack=0;resizeParent=1;resizeLast=0;collapsible=1;marginBottom=0;rounded=0;shadow=0;strokeWidth=1;" parent="1" vertex="1">
          <mxGeometry x="-770" y="422" width="160" height="182" as="geometry">
            <mxRectangle x="340" y="380" width="170" height="26" as="alternateBounds" />
          </mxGeometry>
        </mxCell>
        <mxCell id="PUZ8tLJXQuR5AAKcZnAG-20" value="IdComment [PK] (int)" style="text;align=left;verticalAlign=top;spacingLeft=4;spacingRight=4;overflow=hidden;rotatable=0;points=[[0,0.5],[1,0.5]];portConstraint=eastwest;" parent="PUZ8tLJXQuR5AAKcZnAG-19" vertex="1">
          <mxGeometry y="26" width="160" height="26" as="geometry" />
        </mxCell>
        <mxCell id="PUZ8tLJXQuR5AAKcZnAG-21" value="Text (str)" style="text;align=left;verticalAlign=top;spacingLeft=4;spacingRight=4;overflow=hidden;rotatable=0;points=[[0,0.5],[1,0.5]];portConstraint=eastwest;" parent="PUZ8tLJXQuR5AAKcZnAG-19" vertex="1">
          <mxGeometry y="52" width="160" height="26" as="geometry" />
        </mxCell>
        <mxCell id="PUZ8tLJXQuR5AAKcZnAG-22" value="Date (date)" style="text;align=left;verticalAlign=top;spacingLeft=4;spacingRight=4;overflow=hidden;rotatable=0;points=[[0,0.5],[1,0.5]];portConstraint=eastwest;" parent="PUZ8tLJXQuR5AAKcZnAG-19" vertex="1">
          <mxGeometry y="78" width="160" height="26" as="geometry" />
        </mxCell>
        <mxCell id="PUZ8tLJXQuR5AAKcZnAG-23" value="IdUser [FK] (int)" style="text;align=left;verticalAlign=top;spacingLeft=4;spacingRight=4;overflow=hidden;rotatable=0;points=[[0,0.5],[1,0.5]];portConstraint=eastwest;" parent="PUZ8tLJXQuR5AAKcZnAG-19" vertex="1">
          <mxGeometry y="104" width="160" height="26" as="geometry" />
        </mxCell>
        <mxCell id="PUZ8tLJXQuR5AAKcZnAG-24" value="IdPost [FK] (int)" style="text;align=left;verticalAlign=top;spacingLeft=4;spacingRight=4;overflow=hidden;rotatable=0;points=[[0,0.5],[1,0.5]];portConstraint=eastwest;" parent="PUZ8tLJXQuR5AAKcZnAG-19" vertex="1">
          <mxGeometry y="130" width="160" height="26" as="geometry" />
        </mxCell>
        <mxCell id="PUZ8tLJXQuR5AAKcZnAG-25" value="ReviewÂ " style="swimlane;fontStyle=0;align=center;verticalAlign=top;childLayout=stackLayout;horizontal=1;startSize=26;horizontalStack=0;resizeParent=1;resizeLast=0;collapsible=1;marginBottom=0;rounded=0;shadow=0;strokeWidth=1;" parent="1" vertex="1">
          <mxGeometry x="-790" y="-490" width="160" height="182" as="geometry">
            <mxRectangle x="550" y="140" width="160" height="26" as="alternateBounds" />
          </mxGeometry>
        </mxCell>
        <mxCell id="PUZ8tLJXQuR5AAKcZnAG-26" value="ReviewId" style="text;align=left;verticalAlign=top;spacingLeft=4;spacingRight=4;overflow=hidden;rotatable=0;points=[[0,0.5],[1,0.5]];portConstraint=eastwest;rounded=0;shadow=0;html=0;" parent="PUZ8tLJXQuR5AAKcZnAG-25" vertex="1">
          <mxGeometry y="26" width="160" height="26" as="geometry" />
        </mxCell>
        <mxCell id="PUZ8tLJXQuR5AAKcZnAG-27" value="UserId" style="text;align=left;verticalAlign=top;spacingLeft=4;spacingRight=4;overflow=hidden;rotatable=0;points=[[0,0.5],[1,0.5]];portConstraint=eastwest;" parent="PUZ8tLJXQuR5AAKcZnAG-25" vertex="1">
          <mxGeometry y="52" width="160" height="26" as="geometry" />
        </mxCell>
        <mxCell id="PUZ8tLJXQuR5AAKcZnAG-28" value="BookId" style="text;align=left;verticalAlign=top;spacingLeft=4;spacingRight=4;overflow=hidden;rotatable=0;points=[[0,0.5],[1,0.5]];portConstraint=eastwest;rounded=0;shadow=0;html=0;" parent="PUZ8tLJXQuR5AAKcZnAG-25" vertex="1">
          <mxGeometry y="78" width="160" height="26" as="geometry" />
        </mxCell>
        <mxCell id="PUZ8tLJXQuR5AAKcZnAG-29" value="Date" style="text;align=left;verticalAlign=top;spacingLeft=4;spacingRight=4;overflow=hidden;rotatable=0;points=[[0,0.5],[1,0.5]];portConstraint=eastwest;rounded=0;shadow=0;html=0;" parent="PUZ8tLJXQuR5AAKcZnAG-25" vertex="1">
          <mxGeometry y="104" width="160" height="26" as="geometry" />
        </mxCell>
        <mxCell id="_pP_RwsEZ52vOT59SXGj-28" value="Text" style="text;align=left;verticalAlign=top;spacingLeft=4;spacingRight=4;overflow=hidden;rotatable=0;points=[[0,0.5],[1,0.5]];portConstraint=eastwest;rounded=0;shadow=0;html=0;" parent="PUZ8tLJXQuR5AAKcZnAG-25" vertex="1">
          <mxGeometry y="130" width="160" height="26" as="geometry" />
        </mxCell>
        <mxCell id="_pP_RwsEZ52vOT59SXGj-29" value="Rating (1-5)" style="text;align=left;verticalAlign=top;spacingLeft=4;spacingRight=4;overflow=hidden;rotatable=0;points=[[0,0.5],[1,0.5]];portConstraint=eastwest;rounded=0;shadow=0;html=0;" parent="PUZ8tLJXQuR5AAKcZnAG-25" vertex="1">
          <mxGeometry y="156" width="160" height="26" as="geometry" />
        </mxCell>
        <mxCell id="PUZ8tLJXQuR5AAKcZnAG-30" value="MEDIA" style="swimlane;fontStyle=0;childLayout=stackLayout;horizontal=1;startSize=30;horizontalStack=0;resizeParent=1;resizeParentMax=0;resizeLast=0;collapsible=1;marginBottom=0;whiteSpace=wrap;html=1;" parent="1" vertex="1">
          <mxGeometry x="-1230" y="826" width="140" height="120" as="geometry" />
        </mxCell>
        <mxCell id="PUZ8tLJXQuR5AAKcZnAG-31" value="IdMedia [PK] (int)" style="text;strokeColor=none;fillColor=none;align=left;verticalAlign=middle;spacingLeft=4;spacingRight=4;overflow=hidden;points=[[0,0.5],[1,0.5]];portConstraint=eastwest;rotatable=0;whiteSpace=wrap;html=1;" parent="PUZ8tLJXQuR5AAKcZnAG-30" vertex="1">
          <mxGeometry y="30" width="140" height="30" as="geometry" />
        </mxCell>
        <mxCell id="PUZ8tLJXQuR5AAKcZnAG-32" value="Path (str)" style="text;strokeColor=none;fillColor=none;align=left;verticalAlign=middle;spacingLeft=4;spacingRight=4;overflow=hidden;points=[[0,0.5],[1,0.5]];portConstraint=eastwest;rotatable=0;whiteSpace=wrap;html=1;" parent="PUZ8tLJXQuR5AAKcZnAG-30" vertex="1">
          <mxGeometry y="60" width="140" height="30" as="geometry" />
        </mxCell>
        <mxCell id="PUZ8tLJXQuR5AAKcZnAG-33" value="IdPost [FK] (int)" style="text;strokeColor=none;fillColor=none;align=left;verticalAlign=middle;spacingLeft=4;spacingRight=4;overflow=hidden;points=[[0,0.5],[1,0.5]];portConstraint=eastwest;rotatable=0;whiteSpace=wrap;html=1;" parent="PUZ8tLJXQuR5AAKcZnAG-30" vertex="1">
          <mxGeometry y="90" width="140" height="30" as="geometry" />
        </mxCell>
        <mxCell id="PUZ8tLJXQuR5AAKcZnAG-41" value="Reading Sheets" style="swimlane;fontStyle=0;childLayout=stackLayout;horizontal=1;startSize=30;horizontalStack=0;resizeParent=1;resizeParentMax=0;resizeLast=0;collapsible=1;marginBottom=0;whiteSpace=wrap;html=1;" parent="1" vertex="1">
          <mxGeometry x="-810" y="-220" width="230" height="180" as="geometry" />
        </mxCell>
        <mxCell id="PUZ8tLJXQuR5AAKcZnAG-42" value="SheetId" style="text;strokeColor=none;fillColor=none;align=left;verticalAlign=middle;spacingLeft=4;spacingRight=4;overflow=hidden;points=[[0,0.5],[1,0.5]];portConstraint=eastwest;rotatable=0;whiteSpace=wrap;html=1;" parent="PUZ8tLJXQuR5AAKcZnAG-41" vertex="1">
          <mxGeometry y="30" width="230" height="30" as="geometry" />
        </mxCell>
        <mxCell id="PUZ8tLJXQuR5AAKcZnAG-43" value="UserId" style="text;strokeColor=none;fillColor=none;align=left;verticalAlign=middle;spacingLeft=4;spacingRight=4;overflow=hidden;points=[[0,0.5],[1,0.5]];portConstraint=eastwest;rotatable=0;whiteSpace=wrap;html=1;" parent="PUZ8tLJXQuR5AAKcZnAG-41" vertex="1">
          <mxGeometry y="60" width="230" height="30" as="geometry" />
        </mxCell>
        <mxCell id="PUZ8tLJXQuR5AAKcZnAG-44" value="BookId" style="text;strokeColor=none;fillColor=none;align=left;verticalAlign=middle;spacingLeft=4;spacingRight=4;overflow=hidden;points=[[0,0.5],[1,0.5]];portConstraint=eastwest;rotatable=0;whiteSpace=wrap;html=1;" parent="PUZ8tLJXQuR5AAKcZnAG-41" vertex="1">
          <mxGeometry y="90" width="230" height="30" as="geometry" />
        </mxCell>
        <mxCell id="PUZ8tLJXQuR5AAKcZnAG-45" value="Text" style="text;strokeColor=none;fillColor=none;align=left;verticalAlign=middle;spacingLeft=4;spacingRight=4;overflow=hidden;points=[[0,0.5],[1,0.5]];portConstraint=eastwest;rotatable=0;whiteSpace=wrap;html=1;" parent="PUZ8tLJXQuR5AAKcZnAG-41" vertex="1">
          <mxGeometry y="120" width="230" height="30" as="geometry" />
        </mxCell>
        <mxCell id="_pP_RwsEZ52vOT59SXGj-23" value="Date (date)" style="text;strokeColor=none;fillColor=none;align=left;verticalAlign=middle;spacingLeft=4;spacingRight=4;overflow=hidden;points=[[0,0.5],[1,0.5]];portConstraint=eastwest;rotatable=0;whiteSpace=wrap;html=1;" parent="PUZ8tLJXQuR5AAKcZnAG-41" vertex="1">
          <mxGeometry y="150" width="230" height="30" as="geometry" />
        </mxCell>
        <mxCell id="PUZ8tLJXQuR5AAKcZnAG-46" value="Books" style="swimlane;fontStyle=0;childLayout=stackLayout;horizontal=1;startSize=30;horizontalStack=0;resizeParent=1;resizeParentMax=0;resizeLast=0;collapsible=1;marginBottom=0;whiteSpace=wrap;html=1;" parent="1" vertex="1">
          <mxGeometry x="-230" y="30" width="140" height="390" as="geometry" />
        </mxCell>
        <mxCell id="PUZ8tLJXQuR5AAKcZnAG-47" value="ISBN" style="text;strokeColor=none;fillColor=none;align=left;verticalAlign=middle;spacingLeft=4;spacingRight=4;overflow=hidden;points=[[0,0.5],[1,0.5]];portConstraint=eastwest;rotatable=0;whiteSpace=wrap;html=1;" parent="PUZ8tLJXQuR5AAKcZnAG-46" vertex="1">
          <mxGeometry y="30" width="140" height="30" as="geometry" />
        </mxCell>
        <mxCell id="PUZ8tLJXQuR5AAKcZnAG-48" value="Name" style="text;strokeColor=none;fillColor=none;align=left;verticalAlign=middle;spacingLeft=4;spacingRight=4;overflow=hidden;points=[[0,0.5],[1,0.5]];portConstraint=eastwest;rotatable=0;whiteSpace=wrap;html=1;" parent="PUZ8tLJXQuR5AAKcZnAG-46" vertex="1">
          <mxGeometry y="60" width="140" height="30" as="geometry" />
        </mxCell>
        <mxCell id="PUZ8tLJXQuR5AAKcZnAG-49" value="Author" style="text;strokeColor=none;fillColor=none;align=left;verticalAlign=middle;spacingLeft=4;spacingRight=4;overflow=hidden;points=[[0,0.5],[1,0.5]];portConstraint=eastwest;rotatable=0;whiteSpace=wrap;html=1;" parent="PUZ8tLJXQuR5AAKcZnAG-46" vertex="1">
          <mxGeometry y="90" width="140" height="30" as="geometry" />
        </mxCell>
        <mxCell id="_pP_RwsEZ52vOT59SXGj-2" value="Genre" style="text;strokeColor=none;fillColor=none;align=left;verticalAlign=middle;spacingLeft=4;spacingRight=4;overflow=hidden;points=[[0,0.5],[1,0.5]];portConstraint=eastwest;rotatable=0;whiteSpace=wrap;html=1;" parent="PUZ8tLJXQuR5AAKcZnAG-46" vertex="1">
          <mxGeometry y="120" width="140" height="30" as="geometry" />
        </mxCell>
        <mxCell id="Vw2BUO0Vsb5WRsxz1SZK-1" value="coperta" style="text;strokeColor=none;fillColor=none;align=left;verticalAlign=middle;spacingLeft=4;spacingRight=4;overflow=hidden;points=[[0,0.5],[1,0.5]];portConstraint=eastwest;rotatable=0;whiteSpace=wrap;html=1;" parent="PUZ8tLJXQuR5AAKcZnAG-46" vertex="1">
          <mxGeometry y="150" width="140" height="30" as="geometry" />
        </mxCell>
        <mxCell id="Vw2BUO0Vsb5WRsxz1SZK-2" value="descriere" style="text;strokeColor=none;fillColor=none;align=left;verticalAlign=middle;spacingLeft=4;spacingRight=4;overflow=hidden;points=[[0,0.5],[1,0.5]];portConstraint=eastwest;rotatable=0;whiteSpace=wrap;html=1;" parent="PUZ8tLJXQuR5AAKcZnAG-46" vertex="1">
          <mxGeometry y="180" width="140" height="30" as="geometry" />
        </mxCell>
        <mxCell id="Vw2BUO0Vsb5WRsxz1SZK-3" value="rating" style="text;strokeColor=none;fillColor=none;align=left;verticalAlign=middle;spacingLeft=4;spacingRight=4;overflow=hidden;points=[[0,0.5],[1,0.5]];portConstraint=eastwest;rotatable=0;whiteSpace=wrap;html=1;" parent="PUZ8tLJXQuR5AAKcZnAG-46" vertex="1">
          <mxGeometry y="210" width="140" height="30" as="geometry" />
        </mxCell>
        <mxCell id="Vw2BUO0Vsb5WRsxz1SZK-4" value="nr rating*" style="text;strokeColor=none;fillColor=none;align=left;verticalAlign=middle;spacingLeft=4;spacingRight=4;overflow=hidden;points=[[0,0.5],[1,0.5]];portConstraint=eastwest;rotatable=0;whiteSpace=wrap;html=1;" parent="PUZ8tLJXQuR5AAKcZnAG-46" vertex="1">
          <mxGeometry y="240" width="140" height="30" as="geometry" />
        </mxCell>
        <mxCell id="Vw2BUO0Vsb5WRsxz1SZK-5" value="nr review*" style="text;strokeColor=none;fillColor=none;align=left;verticalAlign=middle;spacingLeft=4;spacingRight=4;overflow=hidden;points=[[0,0.5],[1,0.5]];portConstraint=eastwest;rotatable=0;whiteSpace=wrap;html=1;" parent="PUZ8tLJXQuR5AAKcZnAG-46" vertex="1">
          <mxGeometry y="270" width="140" height="30" as="geometry" />
        </mxCell>
        <mxCell id="Vw2BUO0Vsb5WRsxz1SZK-6" value="nr pagini" style="text;strokeColor=none;fillColor=none;align=left;verticalAlign=middle;spacingLeft=4;spacingRight=4;overflow=hidden;points=[[0,0.5],[1,0.5]];portConstraint=eastwest;rotatable=0;whiteSpace=wrap;html=1;" parent="PUZ8tLJXQuR5AAKcZnAG-46" vertex="1">
          <mxGeometry y="300" width="140" height="30" as="geometry" />
        </mxCell>
        <mxCell id="Vw2BUO0Vsb5WRsxz1SZK-7" value="an publicare" style="text;strokeColor=none;fillColor=none;align=left;verticalAlign=middle;spacingLeft=4;spacingRight=4;overflow=hidden;points=[[0,0.5],[1,0.5]];portConstraint=eastwest;rotatable=0;whiteSpace=wrap;html=1;" parent="PUZ8tLJXQuR5AAKcZnAG-46" vertex="1">
          <mxGeometry y="330" width="140" height="30" as="geometry" />
        </mxCell>
        <mxCell id="Vw2BUO0Vsb5WRsxz1SZK-8" value="serie" style="text;strokeColor=none;fillColor=none;align=left;verticalAlign=middle;spacingLeft=4;spacingRight=4;overflow=hidden;points=[[0,0.5],[1,0.5]];portConstraint=eastwest;rotatable=0;whiteSpace=wrap;html=1;" parent="PUZ8tLJXQuR5AAKcZnAG-46" vertex="1">
          <mxGeometry y="360" width="140" height="30" as="geometry" />
        </mxCell>
        <mxCell id="PUZ8tLJXQuR5AAKcZnAG-60" value="" style="endArrow=none;html=1;rounded=0;exitX=0;exitY=0.5;exitDx=0;exitDy=0;endFill=0;endSize=17;startArrow=ERmany;startFill=0;startSize=17;entryX=0;entryY=0.603;entryDx=0;entryDy=0;entryPerimeter=0;" parent="1" source="PUZ8tLJXQuR5AAKcZnAG-17" edge="1">
          <mxGeometry width="50" height="50" relative="1" as="geometry">
            <mxPoint x="-1170" y="695.74" as="sourcePoint" />
            <mxPoint x="-1170" y="284.6779999999999" as="targetPoint" />
            <Array as="points">
              <mxPoint x="-1230" y="787" />
              <mxPoint x="-1230" y="285" />
            </Array>
          </mxGeometry>
        </mxCell>
        <mxCell id="PUZ8tLJXQuR5AAKcZnAG-61" value="" style="endArrow=ERmany;html=1;rounded=0;exitX=1;exitY=0.5;exitDx=0;exitDy=0;entryX=0;entryY=0.5;entryDx=0;entryDy=0;endFill=0;endSize=17;" parent="1" target="PUZ8tLJXQuR5AAKcZnAG-24" edge="1">
          <mxGeometry width="50" height="50" relative="1" as="geometry">
            <mxPoint x="-860" y="761" as="sourcePoint" />
            <mxPoint x="-746" y="809" as="targetPoint" />
            <Array as="points">
              <mxPoint x="-800" y="761" />
              <mxPoint x="-800" y="591" />
            </Array>
          </mxGeometry>
        </mxCell>
        <mxCell id="PUZ8tLJXQuR5AAKcZnAG-62" value="" style="endArrow=none;html=1;rounded=0;exitX=1;exitY=0.5;exitDx=0;exitDy=0;endFill=0;endSize=14;startArrow=ERmany;startFill=0;startSize=17;entryX=0.998;entryY=0.097;entryDx=0;entryDy=0;entryPerimeter=0;" parent="1" source="PUZ8tLJXQuR5AAKcZnAG-23" target="PUZ8tLJXQuR5AAKcZnAG-9" edge="1">
          <mxGeometry width="50" height="50" relative="1" as="geometry">
            <mxPoint x="-690" y="749" as="sourcePoint" />
            <mxPoint x="-990" y="245" as="targetPoint" />
            <Array as="points">
              <mxPoint x="-570" y="565" />
              <mxPoint x="-570" y="398" />
              <mxPoint x="-970" y="398" />
              <mxPoint x="-970" y="245" />
            </Array>
          </mxGeometry>
        </mxCell>
        <mxCell id="PUZ8tLJXQuR5AAKcZnAG-63" value="" style="endArrow=none;html=1;rounded=0;exitX=1;exitY=0.5;exitDx=0;exitDy=0;entryX=0.128;entryY=1.06;entryDx=0;entryDy=0;entryPerimeter=0;endFill=0;jumpSize=6;endSize=17;startArrow=ERmany;startFill=0;startSize=17;" parent="1" source="PUZ8tLJXQuR5AAKcZnAG-33" edge="1">
          <mxGeometry width="50" height="50" relative="1" as="geometry">
            <mxPoint x="-1150" y="1049" as="sourcePoint" />
            <mxPoint x="-999.52" y="801.56" as="targetPoint" />
            <Array as="points">
              <mxPoint x="-1050" y="931" />
              <mxPoint x="-1000" y="931" />
            </Array>
          </mxGeometry>
        </mxCell>
        <mxCell id="PUZ8tLJXQuR5AAKcZnAG-64" value="Events" style="swimlane;fontStyle=0;childLayout=stackLayout;horizontal=1;startSize=30;horizontalStack=0;resizeParent=1;resizeParentMax=0;resizeLast=0;collapsible=1;marginBottom=0;whiteSpace=wrap;html=1;" parent="1" vertex="1">
          <mxGeometry x="-240" y="490" width="140" height="240" as="geometry" />
        </mxCell>
        <mxCell id="PUZ8tLJXQuR5AAKcZnAG-65" value="EventId" style="text;strokeColor=none;fillColor=none;align=left;verticalAlign=middle;spacingLeft=4;spacingRight=4;overflow=hidden;points=[[0,0.5],[1,0.5]];portConstraint=eastwest;rotatable=0;whiteSpace=wrap;html=1;" parent="PUZ8tLJXQuR5AAKcZnAG-64" vertex="1">
          <mxGeometry y="30" width="140" height="30" as="geometry" />
        </mxCell>
        <mxCell id="PUZ8tLJXQuR5AAKcZnAG-66" value="Description" style="text;strokeColor=none;fillColor=none;align=left;verticalAlign=middle;spacingLeft=4;spacingRight=4;overflow=hidden;points=[[0,0.5],[1,0.5]];portConstraint=eastwest;rotatable=0;whiteSpace=wrap;html=1;" parent="PUZ8tLJXQuR5AAKcZnAG-64" vertex="1">
          <mxGeometry y="60" width="140" height="30" as="geometry" />
        </mxCell>
        <mxCell id="_pP_RwsEZ52vOT59SXGj-24" value="ExpiringDate" style="text;strokeColor=none;fillColor=none;align=left;verticalAlign=middle;spacingLeft=4;spacingRight=4;overflow=hidden;points=[[0,0.5],[1,0.5]];portConstraint=eastwest;rotatable=0;whiteSpace=wrap;html=1;" parent="PUZ8tLJXQuR5AAKcZnAG-64" vertex="1">
          <mxGeometry y="90" width="140" height="30" as="geometry" />
        </mxCell>
        <mxCell id="_pP_RwsEZ52vOT59SXGj-25" value="StartDate" style="text;strokeColor=none;fillColor=none;align=left;verticalAlign=middle;spacingLeft=4;spacingRight=4;overflow=hidden;points=[[0,0.5],[1,0.5]];portConstraint=eastwest;rotatable=0;whiteSpace=wrap;html=1;" parent="PUZ8tLJXQuR5AAKcZnAG-64" vertex="1">
          <mxGeometry y="120" width="140" height="30" as="geometry" />
        </mxCell>
        <mxCell id="Vw2BUO0Vsb5WRsxz1SZK-9" value="imagine" style="text;strokeColor=none;fillColor=none;align=left;verticalAlign=middle;spacingLeft=4;spacingRight=4;overflow=hidden;points=[[0,0.5],[1,0.5]];portConstraint=eastwest;rotatable=0;whiteSpace=wrap;html=1;" parent="PUZ8tLJXQuR5AAKcZnAG-64" vertex="1">
          <mxGeometry y="150" width="140" height="30" as="geometry" />
        </mxCell>
        <mxCell id="Vw2BUO0Vsb5WRsxz1SZK-10" value="locatie" style="text;strokeColor=none;fillColor=none;align=left;verticalAlign=middle;spacingLeft=4;spacingRight=4;overflow=hidden;points=[[0,0.5],[1,0.5]];portConstraint=eastwest;rotatable=0;whiteSpace=wrap;html=1;" parent="PUZ8tLJXQuR5AAKcZnAG-64" vertex="1">
          <mxGeometry y="180" width="140" height="30" as="geometry" />
        </mxCell>
        <mxCell id="Vw2BUO0Vsb5WRsxz1SZK-11" value="link" style="text;strokeColor=none;fillColor=none;align=left;verticalAlign=middle;spacingLeft=4;spacingRight=4;overflow=hidden;points=[[0,0.5],[1,0.5]];portConstraint=eastwest;rotatable=0;whiteSpace=wrap;html=1;" parent="PUZ8tLJXQuR5AAKcZnAG-64" vertex="1">
          <mxGeometry y="210" width="140" height="30" as="geometry" />
        </mxCell>
        <mxCell id="Uzm5XDvu-IsSwAludkPc-1" value="POSTLIKE" style="swimlane;fontStyle=0;childLayout=stackLayout;horizontal=1;startSize=30;horizontalStack=0;resizeParent=1;resizeParentMax=0;resizeLast=0;collapsible=1;marginBottom=0;whiteSpace=wrap;html=1;" parent="1" vertex="1">
          <mxGeometry x="-1120" y="524" width="140" height="90" as="geometry" />
        </mxCell>
        <mxCell id="Uzm5XDvu-IsSwAludkPc-2" value="IdUser [PK,FK] (int)" style="text;strokeColor=none;fillColor=none;align=left;verticalAlign=middle;spacingLeft=4;spacingRight=4;overflow=hidden;points=[[0,0.5],[1,0.5]];portConstraint=eastwest;rotatable=0;whiteSpace=wrap;html=1;" parent="Uzm5XDvu-IsSwAludkPc-1" vertex="1">
          <mxGeometry y="30" width="140" height="30" as="geometry" />
        </mxCell>
        <mxCell id="Uzm5XDvu-IsSwAludkPc-3" value="IdPost [PF, FK] (int)" style="text;strokeColor=none;fillColor=none;align=left;verticalAlign=middle;spacingLeft=4;spacingRight=4;overflow=hidden;points=[[0,0.5],[1,0.5]];portConstraint=eastwest;rotatable=0;whiteSpace=wrap;html=1;" parent="Uzm5XDvu-IsSwAludkPc-1" vertex="1">
          <mxGeometry y="60" width="140" height="30" as="geometry" />
        </mxCell>
        <mxCell id="Uzm5XDvu-IsSwAludkPc-11" value="" style="endArrow=ERmany;html=1;rounded=0;entryX=0;entryY=0.5;entryDx=0;entryDy=0;exitX=0;exitY=0.5;exitDx=0;exitDy=0;startArrow=none;startFill=0;endFill=0;endSize=17;" parent="1" source="PUZ8tLJXQuR5AAKcZnAG-13" target="Uzm5XDvu-IsSwAludkPc-3" edge="1">
          <mxGeometry width="50" height="50" relative="1" as="geometry">
            <mxPoint x="-1190" y="721" as="sourcePoint" />
            <mxPoint x="-1140" y="671" as="targetPoint" />
            <Array as="points">
              <mxPoint x="-1150" y="685" />
              <mxPoint x="-1150" y="599" />
            </Array>
          </mxGeometry>
        </mxCell>
        <mxCell id="Uzm5XDvu-IsSwAludkPc-12" value="" style="endArrow=ERmany;html=1;rounded=0;entryX=0;entryY=0.5;entryDx=0;entryDy=0;endFill=0;endSize=17;exitX=0.088;exitY=0.996;exitDx=0;exitDy=0;exitPerimeter=0;" parent="1" target="Uzm5XDvu-IsSwAludkPc-2" edge="1">
          <mxGeometry width="50" height="50" relative="1" as="geometry">
            <mxPoint x="-1155.04" y="320.8960000000002" as="sourcePoint" />
            <mxPoint x="-910" y="635" as="targetPoint" />
            <Array as="points">
              <mxPoint x="-1156" y="569" />
            </Array>
          </mxGeometry>
        </mxCell>
        <mxCell id="M7tEIee7Mg-m7y8RNfFt-2" value="Shelves" style="swimlane;fontStyle=0;childLayout=stackLayout;horizontal=1;startSize=30;horizontalStack=0;resizeParent=1;resizeParentMax=0;resizeLast=0;collapsible=1;marginBottom=0;whiteSpace=wrap;html=1;" parent="1" vertex="1">
          <mxGeometry x="-790" y="220" width="140" height="120" as="geometry" />
        </mxCell>
        <mxCell id="M7tEIee7Mg-m7y8RNfFt-3" value="ShelfId" style="text;strokeColor=none;fillColor=none;align=left;verticalAlign=middle;spacingLeft=4;spacingRight=4;overflow=hidden;points=[[0,0.5],[1,0.5]];portConstraint=eastwest;rotatable=0;whiteSpace=wrap;html=1;" parent="M7tEIee7Mg-m7y8RNfFt-2" vertex="1">
          <mxGeometry y="30" width="140" height="30" as="geometry" />
        </mxCell>
        <mxCell id="M7tEIee7Mg-m7y8RNfFt-4" value="UserId" style="text;strokeColor=none;fillColor=none;align=left;verticalAlign=middle;spacingLeft=4;spacingRight=4;overflow=hidden;points=[[0,0.5],[1,0.5]];portConstraint=eastwest;rotatable=0;whiteSpace=wrap;html=1;" parent="M7tEIee7Mg-m7y8RNfFt-2" vertex="1">
          <mxGeometry y="60" width="140" height="30" as="geometry" />
        </mxCell>
        <mxCell id="_pP_RwsEZ52vOT59SXGj-5" value="Name" style="text;strokeColor=none;fillColor=none;align=left;verticalAlign=middle;spacingLeft=4;spacingRight=4;overflow=hidden;points=[[0,0.5],[1,0.5]];portConstraint=eastwest;rotatable=0;whiteSpace=wrap;html=1;" parent="M7tEIee7Mg-m7y8RNfFt-2" vertex="1">
          <mxGeometry y="90" width="140" height="30" as="geometry" />
        </mxCell>
        <mxCell id="M7tEIee7Mg-m7y8RNfFt-14" value="" style="whiteSpace=wrap;html=1;aspect=fixed;strokeColor=none;" parent="1" vertex="1">
          <mxGeometry x="-1920" y="1115" width="80" height="80" as="geometry" />
        </mxCell>
        <mxCell id="_pP_RwsEZ52vOT59SXGj-3" value="" style="endArrow=none;html=1;rounded=0;entryX=1;entryY=0.5;entryDx=0;entryDy=0;startArrow=ERmany;startFill=0;startSize=15;" parent="1" source="M7tEIee7Mg-m7y8RNfFt-4" target="PUZ8tLJXQuR5AAKcZnAG-8" edge="1">
          <mxGeometry width="50" height="50" relative="1" as="geometry">
            <mxPoint x="-1430" y="310" as="sourcePoint" />
            <mxPoint x="-1380" y="260" as="targetPoint" />
            <Array as="points">
              <mxPoint x="-850" y="300" />
              <mxPoint x="-850" y="230" />
            </Array>
          </mxGeometry>
        </mxCell>
        <mxCell id="_pP_RwsEZ52vOT59SXGj-14" value="ShelvesBooks" style="swimlane;fontStyle=0;childLayout=stackLayout;horizontal=1;startSize=30;horizontalStack=0;resizeParent=1;resizeParentMax=0;resizeLast=0;collapsible=1;marginBottom=0;whiteSpace=wrap;html=1;" parent="1" vertex="1">
          <mxGeometry x="-500" y="250" width="160" height="60" as="geometry" />
        </mxCell>
        <mxCell id="_pP_RwsEZ52vOT59SXGj-15" value="libraryId + BookId" style="text;strokeColor=none;fillColor=none;align=left;verticalAlign=middle;spacingLeft=4;spacingRight=4;overflow=hidden;points=[[0,0.5],[1,0.5]];portConstraint=eastwest;rotatable=0;whiteSpace=wrap;html=1;" parent="_pP_RwsEZ52vOT59SXGj-14" vertex="1">
          <mxGeometry y="30" width="160" height="30" as="geometry" />
        </mxCell>
        <mxCell id="_pP_RwsEZ52vOT59SXGj-17" value="" style="endArrow=ERmany;html=1;rounded=0;exitX=0.987;exitY=0.253;exitDx=0;exitDy=0;entryX=0;entryY=0.5;entryDx=0;entryDy=0;endFill=0;endSize=15;exitPerimeter=0;" parent="1" source="M7tEIee7Mg-m7y8RNfFt-4" target="_pP_RwsEZ52vOT59SXGj-15" edge="1">
          <mxGeometry width="50" height="50" relative="1" as="geometry">
            <mxPoint x="-640" y="290" as="sourcePoint" />
            <mxPoint x="-500" y="290" as="targetPoint" />
          </mxGeometry>
        </mxCell>
        <mxCell id="_pP_RwsEZ52vOT59SXGj-19" value="" style="endArrow=ERmany;html=1;rounded=0;exitX=0;exitY=0.5;exitDx=0;exitDy=0;entryX=1;entryY=0.5;entryDx=0;entryDy=0;endFill=0;endSize=15;" parent="1" source="PUZ8tLJXQuR5AAKcZnAG-49" target="_pP_RwsEZ52vOT59SXGj-15" edge="1">
          <mxGeometry width="50" height="50" relative="1" as="geometry">
            <mxPoint x="-210" y="290" as="sourcePoint" />
            <mxPoint x="-320" y="290" as="targetPoint" />
            <Array as="points">
              <mxPoint x="-270" y="135" />
              <mxPoint x="-270" y="295" />
            </Array>
          </mxGeometry>
        </mxCell>
        <mxCell id="_pP_RwsEZ52vOT59SXGj-21" value="" style="endArrow=ERmany;html=1;rounded=0;exitX=0.5;exitY=0;exitDx=0;exitDy=0;entryX=0;entryY=0.5;entryDx=0;entryDy=0;endFill=0;startSize=10;endSize=15;" parent="1" source="PUZ8tLJXQuR5AAKcZnAG-1" target="PUZ8tLJXQuR5AAKcZnAG-43" edge="1">
          <mxGeometry width="50" height="50" relative="1" as="geometry">
            <mxPoint x="-1090" y="20" as="sourcePoint" />
            <mxPoint x="-1040" y="-30" as="targetPoint" />
            <Array as="points">
              <mxPoint x="-1080" y="-145" />
            </Array>
          </mxGeometry>
        </mxCell>
        <mxCell id="_pP_RwsEZ52vOT59SXGj-22" value="" style="endArrow=ERmany;html=1;rounded=0;exitX=0.5;exitY=0;exitDx=0;exitDy=0;entryX=1;entryY=0.5;entryDx=0;entryDy=0;startArrow=none;startFill=0;endSize=15;startSize=13;endFill=0;" parent="1" source="PUZ8tLJXQuR5AAKcZnAG-46" target="PUZ8tLJXQuR5AAKcZnAG-44" edge="1">
          <mxGeometry width="50" height="50" relative="1" as="geometry">
            <mxPoint x="-500" y="10" as="sourcePoint" />
            <mxPoint x="-450" y="-40" as="targetPoint" />
            <Array as="points">
              <mxPoint x="-160" y="-115" />
            </Array>
          </mxGeometry>
        </mxCell>
        <mxCell id="_pP_RwsEZ52vOT59SXGj-26" value="" style="endArrow=ERmany;html=1;rounded=0;exitX=0.25;exitY=0;exitDx=0;exitDy=0;entryX=0;entryY=0.5;entryDx=0;entryDy=0;endFill=0;startSize=10;endSize=15;" parent="1" source="PUZ8tLJXQuR5AAKcZnAG-1" target="PUZ8tLJXQuR5AAKcZnAG-27" edge="1">
          <mxGeometry width="50" height="50" relative="1" as="geometry">
            <mxPoint x="-1120" y="-110" as="sourcePoint" />
            <mxPoint x="-845" y="-290" as="targetPoint" />
            <Array as="points">
              <mxPoint x="-1120" y="-420" />
            </Array>
          </mxGeometry>
        </mxCell>
        <mxCell id="_pP_RwsEZ52vOT59SXGj-27" value="" style="endArrow=ERmany;html=1;rounded=0;exitX=0.75;exitY=0;exitDx=0;exitDy=0;entryX=1;entryY=0.5;entryDx=0;entryDy=0;startArrow=none;startFill=0;endSize=15;startSize=13;endFill=0;" parent="1" source="PUZ8tLJXQuR5AAKcZnAG-46" target="PUZ8tLJXQuR5AAKcZnAG-28" edge="1">
          <mxGeometry width="50" height="50" relative="1" as="geometry">
            <mxPoint x="-180" y="-265" as="sourcePoint" />
            <mxPoint x="-600" y="-410" as="targetPoint" />
            <Array as="points">
              <mxPoint x="-130" y="-400" />
            </Array>
          </mxGeometry>
        </mxCell>
        <mxCell id="gqULJBK-X4bvL3519kWo-1" value="Actions" style="swimlane;fontStyle=0;childLayout=stackLayout;horizontal=1;startSize=30;horizontalStack=0;resizeParent=1;resizeParentMax=0;resizeLast=0;collapsible=1;marginBottom=0;whiteSpace=wrap;html=1;" vertex="1" parent="1">
          <mxGeometry x="-780" width="210" height="150" as="geometry" />
        </mxCell>
        <mxCell id="gqULJBK-X4bvL3519kWo-2" value="ActionId" style="text;strokeColor=none;fillColor=none;align=left;verticalAlign=middle;spacingLeft=4;spacingRight=4;overflow=hidden;points=[[0,0.5],[1,0.5]];portConstraint=eastwest;rotatable=0;whiteSpace=wrap;html=1;" vertex="1" parent="gqULJBK-X4bvL3519kWo-1">
          <mxGeometry y="30" width="210" height="30" as="geometry" />
        </mxCell>
        <mxCell id="gqULJBK-X4bvL3519kWo-3" value="Denumire( favorite, terminata, citeste, vrea sa citeasca)" style="text;strokeColor=none;fillColor=none;align=left;verticalAlign=middle;spacingLeft=4;spacingRight=4;overflow=hidden;points=[[0,0.5],[1,0.5]];portConstraint=eastwest;rotatable=0;whiteSpace=wrap;html=1;" vertex="1" parent="gqULJBK-X4bvL3519kWo-1">
          <mxGeometry y="60" width="210" height="30" as="geometry" />
        </mxCell>
        <mxCell id="gqULJBK-X4bvL3519kWo-4" value="UserId" style="text;strokeColor=none;fillColor=none;align=left;verticalAlign=middle;spacingLeft=4;spacingRight=4;overflow=hidden;points=[[0,0.5],[1,0.5]];portConstraint=eastwest;rotatable=0;whiteSpace=wrap;html=1;" vertex="1" parent="gqULJBK-X4bvL3519kWo-1">
          <mxGeometry y="90" width="210" height="30" as="geometry" />
        </mxCell>
        <mxCell id="gqULJBK-X4bvL3519kWo-9" value="BookId" style="text;strokeColor=none;fillColor=none;align=left;verticalAlign=middle;spacingLeft=4;spacingRight=4;overflow=hidden;points=[[0,0.5],[1,0.5]];portConstraint=eastwest;rotatable=0;whiteSpace=wrap;html=1;" vertex="1" parent="gqULJBK-X4bvL3519kWo-1">
          <mxGeometry y="120" width="210" height="30" as="geometry" />
        </mxCell>
        <mxCell id="gqULJBK-X4bvL3519kWo-10" value="" style="endArrow=ERmany;html=1;rounded=0;entryX=0;entryY=0.5;entryDx=0;entryDy=0;endFill=0;endSize=24;" edge="1" parent="1" target="gqULJBK-X4bvL3519kWo-4">
          <mxGeometry width="50" height="50" relative="1" as="geometry">
            <mxPoint x="-1000" y="150" as="sourcePoint" />
            <mxPoint x="-950" y="100" as="targetPoint" />
          </mxGeometry>
        </mxCell>
        <mxCell id="gqULJBK-X4bvL3519kWo-11" value="" style="endArrow=none;html=1;rounded=0;exitX=1.014;exitY=0.108;exitDx=0;exitDy=0;exitPerimeter=0;entryX=0;entryY=0.5;entryDx=0;entryDy=0;startArrow=ERmany;startFill=0;endSize=15;startSize=20;" edge="1" parent="1" source="gqULJBK-X4bvL3519kWo-4" target="PUZ8tLJXQuR5AAKcZnAG-48">
          <mxGeometry width="50" height="50" relative="1" as="geometry">
            <mxPoint x="-640" y="100" as="sourcePoint" />
            <mxPoint x="-590" y="50" as="targetPoint" />
          </mxGeometry>
        </mxCell>
        <mxCell id="gqULJBK-X4bvL3519kWo-13" value="friend" style="swimlane;fontStyle=0;childLayout=stackLayout;horizontal=1;startSize=30;horizontalStack=0;resizeParent=1;resizeParentMax=0;resizeLast=0;collapsible=1;marginBottom=0;whiteSpace=wrap;html=1;" vertex="1" parent="1">
          <mxGeometry x="-1500" y="110" width="140" height="90" as="geometry" />
        </mxCell>
        <mxCell id="gqULJBK-X4bvL3519kWo-14" value="IdUser [PK,FK] (int)" style="text;strokeColor=none;fillColor=none;align=left;verticalAlign=middle;spacingLeft=4;spacingRight=4;overflow=hidden;points=[[0,0.5],[1,0.5]];portConstraint=eastwest;rotatable=0;whiteSpace=wrap;html=1;" vertex="1" parent="gqULJBK-X4bvL3519kWo-13">
          <mxGeometry y="30" width="140" height="30" as="geometry" />
        </mxCell>
        <mxCell id="gqULJBK-X4bvL3519kWo-15" value="IdUser" style="text;strokeColor=none;fillColor=none;align=left;verticalAlign=middle;spacingLeft=4;spacingRight=4;overflow=hidden;points=[[0,0.5],[1,0.5]];portConstraint=eastwest;rotatable=0;whiteSpace=wrap;html=1;" vertex="1" parent="gqULJBK-X4bvL3519kWo-13">
          <mxGeometry y="60" width="140" height="30" as="geometry" />
        </mxCell>
        <mxCell id="gqULJBK-X4bvL3519kWo-16" value="" style="endArrow=none;html=1;rounded=0;exitX=1;exitY=0.5;exitDx=0;exitDy=0;startArrow=ERmany;startFill=0;targetPerimeterSpacing=0;endSize=16;startSize=19;" edge="1" parent="1" source="gqULJBK-X4bvL3519kWo-15" target="PUZ8tLJXQuR5AAKcZnAG-8">
          <mxGeometry width="50" height="50" relative="1" as="geometry">
            <mxPoint x="-1320" y="180" as="sourcePoint" />
            <mxPoint x="-1270" y="130" as="targetPoint" />
          </mxGeometry>
        </mxCell>
        <mxCell id="gqULJBK-X4bvL3519kWo-18" value="" style="endArrow=none;html=1;rounded=0;startArrow=ERmany;startFill=0;targetPerimeterSpacing=0;endSize=16;startSize=19;" edge="1" parent="1">
          <mxGeometry width="50" height="50" relative="1" as="geometry">
            <mxPoint x="-1360" y="140" as="sourcePoint" />
            <mxPoint x="-1170" y="150" as="targetPoint" />
          </mxGeometry>
        </mxCell>
      </root>
    </mxGraphModel>
  </diagram>
</mxfile>
